# File created by Blade
# Date/Time:  Thu Sep 25 21:01:51 2014
# Frame Rate: 120.000 fps
#------------------------------------------------------
:FULLY-SPECIFIED
:DEGREES
3602
root -3.228776 14.664576 1.882863 30.708539 -16.651291 3.647485
Spine -28.823869 0.585731 -2.425817
Head -2.523372 13.418468 0.800873
LeftShoulder -13.883066 24.897870 13.262554
LeftArm 12.687184 19.070751 -78.672153
LeftForeArm 8.989530 0.000000 35.481502
LeftHand -23.312269 -0.000000 -3.626989
LeftHandThumb1 -26.253704 0.000000 33.147579
RightShoulder -20.967586 -1.556989 -26.681988
RightArm -44.065340 -21.915575 96.735090
RightForeArm -28.973507 -0.000000 10.470857
RightHand -6.930869 -0.000000 30.337675
RightHandThumb1 -24.326973 -0.000000 -32.862282
LeftUpLeg -126.519038 14.519555 -19.086626
LeftLeg 110.455609 -0.000000 -0.000000
LeftFoot -19.318034 -7.096970 -4.229127
LeftToeBase 9.334187 -0.000000 -0.000000
RightUpLeg 5.315865 17.923456 -13.166017
RightLeg 133.951514 -0.000000 -0.000000
RightFoot 41.187782 -3.979634 6.938841
RightToeBase 22.818437 -0.000000 -0.000000
3603
root -3.230915 14.664833 1.884219 30.723830 -16.638444 3.652935
Spine -28.844888 0.628390 -2.523264
Head -2.631608 13.181635 0.983840
LeftShoulder -14.322643 24.834687 12.955267
LeftArm 12.834673 19.460810 -78.472469
LeftForeArm 8.817667 0.000000 34.750248
LeftHand -23.270366 -0.000000 -3.898928
LeftHandThumb1 -26.253704 0.000000 33.147579
RightShoulder -21.189463 -1.485255 -26.856309
RightArm -44.143019 -21.956481 96.850288
RightForeArm -29.065349 -0.000000 10.461119
RightHand -6.962105 -0.000000 30.345776
RightHandThumb1 -24.326973 -0.000000 -32.862282
LeftUpLeg -126.527668 14.515904 -19.083912
LeftLeg 110.474113 -0.000000 -0.000000
LeftFoot -19.364189 -7.328555 -4.439420
LeftToeBase 10.120726 -0.000000 -0.000000
RightUpLeg 5.308047 17.912210 -13.152341
RightLeg 133.978822 -0.000000 -0.000000
RightFoot 41.232169 -3.932581 6.868122
RightToeBase 22.828653 -0.000000 -0.000000
3604
root -3.233649 14.664785 1.885747 30.747432 -16.619534 3.657480
Spine -28.881695 0.660271 -2.611834
Head -2.708387 12.935226 1.171431
LeftShoulder -14.756603 24.684019 12.676572
LeftArm 12.876773 19.848415 -78.320934
LeftForeArm 8.472083 0.000000 34.011639
LeftHand -23.240786 -0.000000 -3.953812
LeftHandThumb1 -26.253704 0.000000 33.147579
RightShoulder -21.409761 -1.417233 -27.027434
RightArm -44.209735 -21.957439 96.912485
RightForeArm -29.277572 -0.000000 10.474120
RightHand -6.757402 -0.000000 30.651750
RightHandThumb1 -24.326973 -0.000000 -32.862282
LeftUpLeg -126.547056 14.509719 -19.068879
LeftLeg 110.468579 -0.000000 -0.000000
LeftFoot -19.364762 -7.303795 -4.551749
LeftToeBase 9.649236 -0.000000 -0.000000
RightUpLeg 5.292106 17.896875 -13.143481
RightLeg 134.006749 -0.000000 -0.000000
RightFoot 41.270711 -3.962787 6.869407
RightToeBase 22.797067 -0.000000 -0.000000
3605
root -3.236393 14.663120 1.888878 30.753521 -16.590222 3.674936
Spine -28.908145 0.645895 -2.705133
Head -2.761720 12.660991 1.401063
LeftShoulder -15.278824 24.529311 12.342082
LeftArm 12.959979 20.217674 -78.132014
LeftForeArm 8.156757 0.000000 33.222975
LeftHand -23.133830 -0.000000 -4.293824
LeftHandThumb1 -26.253704 0.000000 33.147579
RightShoulder -21.580300 -1.396257 -27.155884
RightArm -44.227931 -21.983307 96.964934
RightForeArm -29.335161 0.000000 10.476265
RightHand -6.692270 -0.000000 30.753434
RightHandThumb1 -24.326973 -0.000000 -32.862282
LeftUpLeg -126.548172 14.493759 -19.063357
LeftLeg 110.494363 -0.000000 -0.000000
LeftFoot -19.377639 -7.462135 -4.613153
LeftToeBase 10.265662 -0.000000 -0.000000
RightUpLeg 5.308416 17.874302 -13.132953
RightLeg 134.019220 -0.000000 -0.000000
RightFoot 41.296314 -4.023392 6.911134
RightToeBase 22.813423 -0.000000 -0.000000
3606
root -3.240298 14.660213 1.891853 30.759503 -16.558932 3.702810
Spine -28.949725 0.615906 -2.826944
Head -2.779462 12.350764 1.696358
LeftShoulder -15.739541 24.450476 12.044875
LeftArm 13.067541 20.425242 -77.987076
LeftForeArm 7.758905 -0.000000 32.424893
LeftHand -23.004204 -0.000000 -4.482707
LeftHandThumb1 -26.253704 0.000000 33.147579
RightShoulder -21.698686 -1.427129 -27.231580
RightArm -44.209606 -21.984716 97.001259
RightForeArm -29.449578 0.000000 10.503968
RightHand -6.723827 -0.000000 30.874250
RightHandThumb1 -24.326973 -0.000000 -32.862282
LeftUpLeg -126.556772 14.478531 -19.059092
LeftLeg 110.498833 -0.000000 -0.000000
LeftFoot -19.339226 -7.456404 -4.733894
LeftToeBase 9.775668 -0.000000 -0.000000
RightUpLeg 5.334386 17.860148 -13.124104
RightLeg 134.038599 -0.000000 -0.000000
RightFoot 41.312971 -4.069072 6.967539
RightToeBase 22.840434 -0.000000 -0.000000
3607
root -3.246109 14.656633 1.895933 30.762210 -16.518822 3.714140
Spine -28.987010 0.571758 -2.919948
Head -2.815596 12.033667 1.944960
LeftShoulder -16.253693 24.448137 11.705723
LeftArm 13.239292 20.681896 -77.781075
LeftForeArm 7.390844 -0.000000 31.701402
LeftHand -22.867563 -0.000000 -4.629599
LeftHandThumb1 -26.253704 0.000000 33.147579
RightShoulder -21.819834 -1.365697 -27.368980
RightArm -44.289708 -22.033420 97.115715
RightForeArm -29.509482 -0.000000 10.524140
RightHand -6.760887 -0.000000 31.059794
RightHandThumb1 -24.326973 -0.000000 -32.862282
LeftUpLeg -126.563500 14.470155 -19.043594
LeftLeg 110.534595 -0.000000 -0.000000
LeftFoot -19.339769 -7.662787 -4.811596
LeftToeBase 10.461274 -0.000000 -0.000000
RightUpLeg 5.369656 17.847189 -13.088183
RightLeg 134.052179 -0.000000 -0.000000
RightFoot 41.315682 -4.079554 6.997522
RightToeBase 22.789560 -0.000000 -0.000000
3608
root -3.251363 14.653046 1.904086 30.731747 -16.502062 3.762589
Spine -29.017181 0.542420 -3.094394
Head -2.794218 11.651394 2.251388
LeftShoulder -16.614966 24.286787 11.462347
LeftArm 13.114169 20.753801 -77.743250
LeftForeArm 7.171129 -0.000000 31.081969
LeftHand -22.948124 0.000000 -4.734676
LeftHandThumb1 -26.253704 0.000000 33.147579
RightShoulder -21.963272 -1.312477 -27.483330
RightArm -44.295881 -21.953588 97.104336
RightForeArm -29.774425 -0.000000 10.436914
RightHand -6.661711 -0.000000 31.228376
RightHandThumb1 -24.326973 -0.000000 -32.862282
LeftUpLeg -126.540709 14.472313 -19.072959
LeftLeg 110.556555 -0.000000 -0.000000
LeftFoot -19.359395 -7.608678 -4.830892
LeftToeBase 9.906785 -0.000000 -0.000000
RightUpLeg 5.441131 17.853154 -13.086742
RightLeg 134.049643 -0.000000 -0.000000
RightFoot 41.304985 -4.096758 7.007627
RightToeBase 22.840391 -0.000000 -0.000000
3609
root -3.258668 14.648989 1.909471 30.713605 -16.468565 3.790893
Spine -29.046675 0.485220 -3.239318
Head -2.726261 11.279127 2.638504
LeftShoulder -17.094196 24.271303 11.184295
LeftArm 13.215666 20.841879 -77.655259
LeftForeArm 6.739322 0.000000 30.410916
LeftHand -22.936018 -0.000000 -4.193262
LeftHandThumb1 -26.253704 0.000000 33.147579
RightShoulder -22.092664 -1.330368 -27.539764
RightArm -44.351099 -22.112188 97.258488
RightForeArm -29.810770 -0.000000 10.519396
RightHand -6.732601 -0.000000 31.284346
RightHandThumb1 -24.326973 -0.000000 -32.862282
LeftUpLeg -126.528844 14.468222 -19.086126
LeftLeg 110.583262 -0.000000 -0.000000
LeftFoot -19.356401 -7.702415 -4.964199
LeftToeBase 9.938874 -0.000000 -0.000000
RightUpLeg 5.500233 17.849827 -13.060197
RightLeg 134.049174 -0.000000 -0.000000
RightFoot 41.309917 -4.064965 7.014101
RightToeBase 22.869063 -0.000000 -0.000000
3610
root -3.266905 14.644258 1.913938 30.699522 -16.437613 3.799251
Spine -29.089677 0.468010 -3.376226
Head -2.648274 10.877372 2.968574
LeftShoulder -17.422198 24.213885 10.941319
LeftArm 13.137942 20.752025 -77.658703
LeftForeArm 6.494343 0.000000 29.876261
LeftHand -23.040707 0.000000 -4.004322
LeftHandThumb1 -26.253704 0.000000 33.147579
RightShoulder -22.213400 -1.365291 -27.612218
RightArm -44.349819 -22.155796 97.324142
RightForeArm -29.875842 0.000000 10.526316
RightHand -6.913276 -0.000000 31.236487
RightHandThumb1 -24.326973 -0.000000 -32.862282
LeftUpLeg -126.524818 14.475913 -19.097378
LeftLeg 110.608671 -0.000000 -0.000000
LeftFoot -19.331566 -7.761584 -4.912931
LeftToeBase 9.644267 -0.000000 -0.000000
RightUpLeg 5.558318 17.878719 -13.001878
RightLeg 134.066668 -0.000000 -0.000000
RightFoot 41.280073 -3.991116 7.035915
RightToeBase 22.860960 -0.000000 -0.000000
3611
root -3.276536 14.637375 1.920272 30.677793 -16.419983 3.811759
Spine -29.140114 0.483064 -3.547085
Head -2.525682 10.485208 3.323819
LeftShoulder -17.716651 24.159130 10.761095
LeftArm 13.055953 20.673851 -77.692126
LeftForeArm 6.257738 0.000000 29.339627
LeftHand -23.110708 0.000000 -4.444143
LeftHandThumb1 -26.253704 0.000000 33.147579
RightShoulder -22.360097 -1.414745 -27.692280
RightArm -44.345549 -22.157668 97.392887
RightForeArm -30.215231 -0.000000 10.481626
RightHand -6.652868 0.000000 31.255319
RightHandThumb1 -24.326973 -0.000000 -32.862282
LeftUpLeg -126.525861 14.510932 -19.107719
LeftLeg 110.641383 -0.000000 -0.000000
LeftFoot -19.391163 -7.833306 -5.067488
LeftToeBase 10.009806 -0.000000 -0.000000
RightUpLeg 5.626234 17.906107 -12.961979
RightLeg 134.060599 -0.000000 -0.000000
RightFoot 41.290673 -3.964024 7.031647
RightToeBase 22.776573 -0.000000 -0.000000
3612
root -3.285852 14.630008 1.927918 30.649747 -16.388824 3.820376
Spine -29.183090 0.525075 -3.719719
Head -2.421715 10.014934 3.655805
LeftShoulder -17.988703 24.209567 10.574811
LeftArm 13.079540 20.531992 -77.722204
LeftForeArm 5.995092 -0.000000 28.818369
LeftHand -23.023876 -0.000000 -3.931245
LeftHandThumb1 -26.253704 0.000000 33.147579
RightShoulder -22.546187 -1.411120 -27.784921
RightArm -44.404550 -22.161398 97.413858
RightForeArm -30.156068 -0.000000 10.513532
RightHand -6.780700 -0.000000 31.586823
RightHandThumb1 -24.326973 -0.000000 -32.862282
LeftUpLeg -126.514849 14.536142 -19.111146
LeftLeg 110.686891 -0.000000 -0.000000
LeftFoot -19.429802 -7.926498 -5.115298
LeftToeBase 10.090008 -0.000000 -0.000000
RightUpLeg 5.710573 17.921213 -12.903927
RightLeg 134.032824 -0.000000 -0.000000
RightFoot 41.327094 -4.015359 7.044728
RightToeBase 22.774915 -0.000000 -0.000000
3613
root -3.295880 14.623250 1.936137 30.617215 -16.363928 3.826808
Spine -29.240695 0.542959 -3.893816
Head -2.279417 9.464079 3.935170
LeftShoulder -18.149589 24.139414 10.471135
LeftArm 12.802532 20.277755 -77.887270
LeftForeArm 5.869630 -0.000000 28.498122
LeftHand -23.174201 0.000000 -4.367437
LeftHandThumb1 -26.253704 0.000000 33.147579
RightShoulder -22.688136 -1.474894 -27.842249
RightArm -44.368448 -22.135244 97.412469
RightForeArm -30.271197 -0.000000 10.488589
RightHand -7.000153 -0.000000 31.524783
RightHandThumb1 -24.326973 -0.000000 -32.862282
LeftUpLeg -126.498442 14.573802 -19.115886
LeftLeg 110.720903 -0.000000 -0.000000
LeftFoot -19.478390 -7.972566 -5.184694
LeftToeBase 10.275975 -0.000000 -0.000000
RightUpLeg 5.795636 17.955313 -12.853111
RightLeg 134.004554 -0.000000 -0.000000
RightFoot 41.358306 -4.030989 7.068777
RightToeBase 22.724612 -0.000000 -0.000000
